{"title":"American.Pie.UNRATED.1999.720p.BRRip.XviD.AC3-PsychoLogic","uid":6621434,"size":2435480630,"categoryP":"video","categoryS":"hd___movies","magnet":"?xt=urn:btih:a3ffe2c8a9c2590e7c4886b796959e47296ce499&amp;dn=American.Pie.UNRATED.1999.720p.BRRip.XviD.AC3-PsychoLogic&amp;tr=udp%3A%2F%2Ftracker.openbittorrent.com%3A80&amp;tr=udp%3A%2F%2Fopen.demonii.com%3A1337&amp;tr=udp%3A%2F%2Ftracker.coppersurfer.tk%3A6969&amp;tr=udp%3A%2F%2Fexodus.desync.com%3A6969","seeders":1,"leechers":0,"uploader":"PsychoLogic","files":14,"time":1314013152,"description":"Release Information:\n\nAmerican.Pie.UNRATED.1999.720p.BRRip.XviD.AC3-PsychoLogic\n\nSource                           : American.Pie.UNRATED.1999.720p.BluRay.DTS.x264-CtrlHD\nSubtitles                        : Arabic, Bulgarian, Danish, Dutch, English, Greek, Serbian, Slovenian, Swedish, Vietnamese\nLanguage                         : English\nEncoded By                       : PsychoLogic\nSample Included                  : Yes\n\nMovie Information                : http://www.imdb.com/title/tt0163651/\nGenre                            : Comedy | Romance\nDirector                         : Paul Weitz\nCast                             : Jason Biggs, Chris Klein and Thomas Ian Nicholas\nPlot                             : Four teenage boys enter a pact to lose their virginity by prom night. \n\nGeneral\nFormat                           : AVI\nFormat/Info                      : Audio Video Interleave\nFormat profile                   : OpenDML\nFile size                        : 2.24 GiB\nDuration                         : 1h 35mn\nOverall bit rate                 : 3 357 Kbps\nWriting application              : VirtualDubMod 1.5.10.2 (build 2542/release)\nWriting library                  : VirtualDubMod build 2542/release\n\nVideo\nID                               : 0\nFormat                           : MPEG-4 Visual\nFormat profile                   : Advanced Simple@L5\nFormat settings, BVOP            : 2\nFormat settings, QPel            : No\nFormat settings, GMC             : No warppoints\nFormat settings, Matrix          : Default (H.263)\nCodec ID                         : XVID\nCodec ID/Hint                    : XviD\nDuration                         : 1h 35mn\nBit rate                         : 2 897 Kbps\nWidth                            : 1 280 pixels\nHeight                           : 720 pixels\nDisplay aspect ratio             : 16:9\nFrame rate                       : 24.000 fps\nColor space                      : YUV\nChroma subsampling               : 4:2:0\nBit depth                        : 8 bits\nScan type                        : Progressive\nCompression mode                 : Lossy\nBits/(Pixel*Frame)               : 0.131\nStream size                      : 1.93 GiB (86%)\nWriting library                  : XviD 1.2.1 (UTC 2008-12-04)\n\nAudio\nID                               : 1\nFormat                           : AC-3\nFormat/Info                      : Audio Coding 3\nMode extension                   : CM (complete main)\nCodec ID                         : 2000\nDuration                         : 1h 35mn\nBit rate mode                    : Constant\nBit rate                         : 448 Kbps\nChannel(s)                       : 6 channels\nChannel positions                : Front: L C R, Side: L R, LFE\nSampling rate                    : 48.0 KHz\nBit depth                        : 16 bits\nCompression mode                 : Lossy\nStream size                      : 306 MiB (13%)\nAlignment                        : Split accross interleaves\nInterleave, duration             : 42 ms (1.00 video frame)\nInterleave, preload duration     : 500 ms\n\n","torrent":{"xt":"urn:btih:a3ffe2c8a9c2590e7c4886b796959e47296ce499","amp;dn":"American.Pie.UNRATED.1999.720p.BRRip.XviD.AC3-PsychoLogic","amp;tr":["udp%3A%2F%2Ftracker.openbittorrent.com%3A80","udp%3A%2F%2Fopen.demonii.com%3A1337","udp%3A%2F%2Ftracker.coppersurfer.tk%3A6969","udp%3A%2F%2Fexodus.desync.com%3A6969"],"infoHash":"a3ffe2c8a9c2590e7c4886b796959e47296ce499","infoHashBuffer":{"type":"Buffer","data":[163,255,226,200,169,194,89,14,124,72,134,183,150,149,158,71,41,108,228,153]},"announce":[],"urlList":[]}}